mtllib materials.mtl
v -0.24125 -0.03437501 0.1212502
v -0.2412499 -0.03437507 -0.1087499
v -0.2412499 0.04562491 -0.1087499
v -0.24125 0.04562497 0.12125
v 0.23875 -0.03437501 0.1212502
v 0.23875 0.04562497 0.1212502
v 0.23875 0.04562491 -0.1087499
v 0.23875 -0.03437507 -0.1087497
v -0.2412503 0.155625 -0.04374993
v -0.2412501 0.04562491 -0.04374993
v -0.2412499 0.04562491 -0.10375
v -0.2412502 0.1556249 -0.10375
v 0.2387506 0.155625 -0.04374981
v 0.2387505 0.155625 -0.1037499
v 0.2387502 0.04562497 -0.1037499
v 0.2387503 0.04562497 -0.04374993
v -0.28125 -0.03437501 0.12125
v -0.2812499 -0.03437507 -0.10875
v -0.2812499 0.1056249 -0.10875
v -0.28125 0.105625 0.1212499
v -0.22125 -0.03437501 0.12125
v -0.22125 0.105625 0.12125
v -0.22125 0.1056249 -0.10875
v -0.22125 -0.03437507 -0.1087499
v 0.2187499 -0.03437501 0.1212502
v 0.21875 -0.03437507 -0.1087499
v 0.21875 0.1056249 -0.1087499
v 0.2187499 0.105625 0.12125
v 0.2787499 -0.03437501 0.1212502
v 0.2787499 0.105625 0.1212502
v 0.27875 0.1056249 -0.1087499
v 0.27875 -0.03437507 -0.1087497
v -0.2412499 -0.05437505 0.08625007
v -0.2412499 -0.03437507 0.08625007
v -0.2412499 -0.03437507 0.10625
v -0.2412499 -0.05437505 0.10625
v -0.22125 -0.05437505 0.08625007
v -0.22125 -0.05437505 0.10625
v -0.22125 -0.03437507 0.10625
v -0.22125 -0.03437507 0.08625007
v 0.22875 -0.05437505 -0.0737499
v 0.22875 -0.03437507 -0.0737499
v 0.22875 -0.03437507 -0.05374992
v 0.22875 -0.05437505 -0.05374992
v 0.24875 -0.05437505 -0.0737499
v 0.24875 -0.05437505 -0.05374992
v 0.24875 -0.03437507 -0.05374992
v 0.24875 -0.03437507 -0.0737499
v -0.24125 -0.05437505 -0.0737499
v -0.24125 -0.03437507 -0.0737499
v -0.24125 -0.03437507 -0.05374992
v -0.24125 -0.05437505 -0.05374992
v -0.22125 -0.05437505 -0.0737499
v -0.22125 -0.05437505 -0.05374992
v -0.22125 -0.03437507 -0.05374992
v -0.22125 -0.03437507 -0.0737499
v 0.21875 -0.03437507 0.07625008
v 0.23875 -0.03437507 0.07625008
v 0.23875 -0.03437507 0.09625006
v 0.21875 -0.03437507 0.09625006
v 0.21875 -0.05437505 0.07625008
v 0.21875 -0.05437505 0.09625006
v 0.23875 -0.05437505 0.09625006
v 0.23875 -0.05437505 0.07625008
vn -1 0 -8.742278E-08
vn 1 0 8.742278E-08
vn -1.528548E-14 -1 1.748456E-07
vn 1.528548E-14 1 -1.748456E-07
vn -8.742278E-08 1.748456E-07 1
vn 8.742278E-08 -1.748456E-07 -1
vn -1 -8.742273E-08 -1.748456E-07
vn 1 8.742273E-08 1.748456E-07
vn -1.748456E-07 -5.960464E-08 1
vn 1.748456E-07 5.960464E-08 -1
vn -8.742276E-08 1 3.576279E-07
vn 8.742276E-08 -1 -3.576279E-07
vn -1 0 -8.742278E-08
vn 1 0 8.742278E-08
vn -1.528548E-14 -1 1.748456E-07
vn 1.528548E-14 1 -1.748456E-07
vn -8.742278E-08 1.748456E-07 1
vn 8.742278E-08 -1.748456E-07 -1
vn -1 0 -8.742278E-08
vn 1 0 8.742278E-08
vn -1.528548E-14 -1 1.748456E-07
vn 1.528548E-14 1 -1.748456E-07
vn -8.742278E-08 1.748456E-07 1
vn 8.742278E-08 -1.748456E-07 -1
vn -1 0 0
vn 1 0 0
vn 0 1.192093E-07 -1
vn 0 -1.192093E-07 1
vn 0 -1 1.192093E-07
vn 0 1 -1.192093E-07
vn -1 0 0
vn 1 0 0
vn 0 1.192093E-07 -1
vn 0 -1.192093E-07 1
vn 0 -1 1.192093E-07
vn 0 1 -1.192093E-07
vn -1 0 0
vn 1 0 0
vn 0 1.192093E-07 -1
vn 0 -1.192093E-07 1
vn 0 -1 1.192093E-07
vn 0 1 -1.192093E-07
vn 0 1 2.384186E-07
vn 0 -1 -2.384186E-07
vn 0 2.384186E-07 -1
vn 0 -2.384186E-07 1
vn -1 0 0
vn 1 0 0
usemtl mat17
f 4//1 3//1 2//1 1//1
f 8//2 7//2 6//2 5//2
f 2//3 8//3 5//3 1//3
f 6//4 7//4 3//4 4//4
f 5//5 6//5 4//5 1//5
f 3//6 7//6 8//6 2//6
f 12//7 11//7 10//7 9//7
f 16//8 15//8 14//8 13//8
f 10//9 16//9 13//9 9//9
f 14//10 15//10 11//10 12//10
f 13//11 14//11 12//11 9//11
f 11//12 15//12 16//12 10//12
f 20//13 19//13 18//13 17//13
f 24//14 23//14 22//14 21//14
f 18//15 24//15 21//15 17//15
f 22//16 23//16 19//16 20//16
f 21//17 22//17 20//17 17//17
f 19//18 23//18 24//18 18//18
f 28//19 27//19 26//19 25//19
f 32//20 31//20 30//20 29//20
f 26//21 32//21 29//21 25//21
f 30//22 31//22 27//22 28//22
f 29//23 30//23 28//23 25//23
f 27//24 31//24 32//24 26//24
usemtl mat20
f 36//25 35//25 34//25 33//25
f 40//26 39//26 38//26 37//26
f 34//27 40//27 37//27 33//27
f 38//28 39//28 35//28 36//28
f 37//29 38//29 36//29 33//29
f 35//30 39//30 40//30 34//30
f 44//31 43//31 42//31 41//31
f 48//32 47//32 46//32 45//32
f 42//33 48//33 45//33 41//33
f 46//34 47//34 43//34 44//34
f 45//35 46//35 44//35 41//35
f 43//36 47//36 48//36 42//36
f 52//37 51//37 50//37 49//37
f 56//38 55//38 54//38 53//38
f 50//39 56//39 53//39 49//39
f 54//40 55//40 51//40 52//40
f 53//41 54//41 52//41 49//41
f 51//42 55//42 56//42 50//42
f 60//43 59//43 58//43 57//43
f 64//44 63//44 62//44 61//44
f 58//45 64//45 61//45 57//45
f 62//46 63//46 59//46 60//46
f 61//47 62//47 60//47 57//47
f 59//48 63//48 64//48 58//48
